<svg width="18" height="18" viewBox="0 0 18 18" fill="none" xmlns="http://www.w3.org/2000/svg">
<path fill-rule="evenodd" clip-rule="evenodd" d="M2.51847 8.07402C2.51847 5.00578 5.00578 2.51847 8.07402 2.51847C11.1423 2.51847 13.6296 5.00578 13.6296 8.07402C13.6296 11.1423 11.1423 13.6296 8.07402 13.6296C5.00578 13.6296 2.51847 11.1423 2.51847 8.07402ZM8.07402 0.666626C3.98303 0.666626 0.666626 3.98303 0.666626 8.07402C0.666626 12.165 3.98303 15.4814 8.07402 15.4814C9.78579 15.4814 11.3619 14.9008 12.6163 13.9257L15.7526 17.0621C16.1142 17.4237 16.7005 17.4237 17.0621 17.0621C17.4237 16.7005 17.4237 16.1142 17.0621 15.7526L13.9257 12.6163C14.9008 11.3619 15.4814 9.78579 15.4814 8.07402C15.4814 3.98303 12.165 0.666626 8.07402 0.666626Z" fill="#2C313A"/>
</svg>
